<?xml version="1.0" encoding="utf-8"?>
<!-- Generator: Adobe Illustrator 19.0.0, SVG Export Plug-In . SVG Version: 6.00 Build 0)  -->
<svg version="1.1" id="Layer_1" xmlns="http://www.w3.org/2000/svg" xmlns:xlink="http://www.w3.org/1999/xlink" x="0px" y="0px"
	 viewBox="0 0 99 99" style="enable-background:new 0 0 99 99;" xml:space="preserve">
<path d="M59.4,49.5L97,11.9c2.7-2.7,2.7-7.2,0-9.9c-2.7-2.7-7.2-2.7-9.9,0L49.5,39.6L12,2.1c-2.7-2.7-7.2-2.7-9.9,0
	c-2.7,2.7-2.7,7.2,0,9.9l37.6,37.6L2.1,87.1c-2.7,2.7-2.7,7.2,0,9.9C3.4,98.3,5.2,99,7,99s3.6-0.7,5-2.1l37.5-37.5l37.5,37.5
	c1.4,1.4,3.2,2.1,5,2.1s3.6-0.7,5-2.1c2.7-2.7,2.7-7.2,0-9.9L59.4,49.5z"/>
</svg>
